<svg width="75" height="75" viewBox="0 0 75 75" fill="none" xmlns="http://www.w3.org/2000/svg">
<path d="M26.6912 11.2973L33.5207 5.6318L33.5276 5.62497L33.5414 5.63522C33.7832 5.67278 34.0216 5.71035 34.2634 5.75474C48.9344 8.64383 58.4341 22.7546 55.5082 37.2342C52.6134 51.5909 38.5918 60.9343 24.1004 58.3082C27.2267 57.6081 30.232 56.1875 32.8574 54.0121C41.6559 46.7108 42.8062 33.7407 35.4206 25.0427C31.1889 20.0568 25.0711 17.5604 18.9636 17.7072L26.6947 11.2939L26.6912 11.2973Z" fill="url(#paint0_linear_700_220)"/>
<path d="M3.24079 62.9242C1.87907 61.2067 2.09215 58.6428 3.71356 57.2004C5.33497 55.7579 7.75544 55.9836 9.11716 57.7011C10.4789 59.4186 10.2658 61.9825 8.64438 63.425C7.02297 64.8674 4.60251 64.6417 3.24079 62.9242Z" fill="url(#paint1_linear_700_220)"/>
<path d="M41.5297 74.2534C29.1035 76.6854 16.8796 73.0306 8.09692 65.4052C8.60945 65.1912 9.10106 64.9059 9.54734 64.5357C10.4678 63.7816 11.0884 62.8102 11.3917 61.764C13.3163 62.8408 15.349 63.7579 17.4898 64.4711C35.7734 70.5952 55.6713 61.1085 61.9366 43.3C68.2229 25.4882 58.4849 6.10372 40.2048 0C56.1245 2.55425 68.7425 14.4254 71.8908 29.8087C76.1026 50.2529 62.5154 70.1435 41.5297 74.25V74.2534Z" fill="url(#paint2_linear_700_220)"/>
<defs>
<linearGradient id="paint0_linear_700_220" x1="2.34375" y1="37.5" x2="72.6565" y2="37.5" gradientUnits="userSpaceOnUse">
<stop stop-color="#00DBFF"/>
<stop offset="1" stop-color="#00FF75"/>
</linearGradient>
<linearGradient id="paint1_linear_700_220" x1="2.34375" y1="37.5" x2="72.6565" y2="37.5" gradientUnits="userSpaceOnUse">
<stop stop-color="#00DBFF"/>
<stop offset="1" stop-color="#00FF75"/>
</linearGradient>
<linearGradient id="paint2_linear_700_220" x1="2.34375" y1="37.5" x2="72.6565" y2="37.5" gradientUnits="userSpaceOnUse">
<stop stop-color="#00DBFF"/>
<stop offset="1" stop-color="#00FF75"/>
</linearGradient>
</defs>
</svg>
